<svg width="108" height="109" viewBox="0 0 108 109" fill="none" xmlns="http://www.w3.org/2000/svg">
<path d="M107.946 54.8707C107.946 69.6453 102.007 83.0349 92.3831 92.7759C86.9424 98.2873 80.3235 102.632 72.9339 105.399C70.7078 106.236 68.409 106.927 66.0531 107.465C62.1776 108.35 58.1439 108.817 53.9999 108.817C49.2417 108.817 44.6287 108.2 40.2359 107.044C31.7521 104.814 24.0852 100.566 17.7767 94.8459C6.89076 84.9769 0.0539551 70.7219 0.0539551 54.8707C0.0539551 25.0771 24.2064 0.924683 53.9999 0.924683C83.7935 0.924683 107.946 25.0771 107.946 54.8707Z" fill="#4A9DAF"/>
<mask id="mask0" mask-type="alpha" maskUnits="userSpaceOnUse" x="0" y="0" width="108" height="109">
<path d="M107.946 54.8707C107.946 69.6453 102.007 83.0349 92.3831 92.7759C86.9424 98.2873 80.3235 102.632 72.9339 105.399C70.7078 106.236 68.409 106.927 66.0531 107.465C62.1776 108.35 58.1439 108.817 53.9999 108.817C49.2417 108.817 44.6287 108.2 40.2359 107.044C31.7521 104.814 24.0852 100.566 17.7767 94.8459C6.89076 84.9769 0.0539551 70.7219 0.0539551 54.8707C0.0539551 25.0771 24.2064 0.924683 53.9999 0.924683C83.7935 0.924683 107.946 25.0771 107.946 54.8707Z" fill="#4A9DAF"/>
</mask>
<g mask="url(#mask0)">
<rect x="45.8667" y="88.1708" width="16.2666" height="25.1744" fill="#57BB7F"/>
</g>
<path d="M90.5647 51.1294C90.5647 71.3234 69.5163 98.3821 54.0001 98.3821C38.4839 98.3821 17.4355 71.3234 17.4355 51.1294C17.4355 30.9354 33.8061 14.5648 54.0001 14.5648C74.1941 14.5648 90.5647 30.9354 90.5647 51.1294Z" fill="#6BD194"/>
<path d="M75.7516 65.3276C81.0976 59.9822 82.7724 52.9896 79.4925 49.7097C76.2127 46.4292 69.22 48.104 63.874 53.45C58.528 58.796 56.8532 65.7886 60.133 69.0685C63.4136 72.3484 70.4056 70.6736 75.7516 65.3276Z" fill="#336975"/>
<path d="M32.2479 65.3287C37.5939 70.6748 44.5866 72.3495 47.8664 69.069C51.1463 65.7892 49.4715 58.7965 44.1261 53.4511C38.7801 48.1051 31.7875 46.4303 28.5076 49.7102C25.2277 52.9901 26.9025 59.9827 32.2479 65.3287Z" fill="#336975"/>
<line x1="51.4028" y1="82.9257" x2="56.5972" y2="82.9257" stroke="#336975" stroke-width="2" stroke-linecap="round"/>
</svg>
