<svg width="109" height="109" viewBox="0 0 109 109" fill="none" xmlns="http://www.w3.org/2000/svg">
<path d="M108.583 54.8707C108.583 69.6453 102.645 83.0349 93.0202 92.7759C87.5795 98.2873 80.9605 102.632 73.571 105.399C71.3449 106.236 69.0461 106.927 66.6901 107.465C62.8147 108.35 58.7809 108.817 54.637 108.817C49.8788 108.817 45.2658 108.2 40.873 107.044C32.3891 104.814 24.7223 100.566 18.4138 94.8459C7.52785 84.9769 0.69104 70.7219 0.69104 54.8707C0.69104 25.0771 24.8435 0.924683 54.637 0.924683C84.4306 0.924683 108.583 25.0771 108.583 54.8707Z" fill="#FB4B54"/>
<line x1="34.5831" y1="34.8494" x2="74.63" y2="74.6174" stroke="white" stroke-width="8" stroke-linecap="round"/>
<line x1="74.4125" y1="35.0597" x2="34.2629" y2="74.9595" stroke="white" stroke-width="8" stroke-linecap="round"/>
</svg>
