<svg width="122" height="123" viewBox="0 0 122 123" fill="none" xmlns="http://www.w3.org/2000/svg">
<path d="M51.9481 98.2258C22.8389 69.1167 8.81882 35.9422 20.633 24.128C31.5616 13.1994 60.7666 24.3884 88.1254 49.1671C86.0128 46.7787 83.8001 44.4116 81.4713 42.0829C58.3277 18.9393 31.5795 6.23537 14.1648 8.51589C7.61159 9.37373 2.49272 14.4926 1.63441 21.0458C-0.646103 38.4605 12.058 65.2087 35.2016 88.3523C43.4565 96.6072 52.1691 103.53 60.7536 108.92C61.7274 109.532 62.7248 108.175 61.8534 107.424C58.5246 104.559 55.2108 101.489 51.9481 98.2258Z" fill="#81C9D8"/>
<path d="M70.0513 24.7585C99.1604 53.8676 113.18 87.0424 101.366 98.8563C90.4378 109.785 61.2327 98.5959 33.874 73.8172C35.9866 76.2055 38.1993 78.5727 40.528 80.9014C63.6716 104.045 90.4199 116.749 107.835 114.469C114.388 113.61 119.507 108.492 120.364 101.939C122.645 84.524 109.941 57.7758 86.7973 34.6322C78.5424 26.3773 69.8298 19.4545 61.2453 14.0642C60.2715 13.4528 59.2741 14.8098 60.1455 15.56C63.4748 18.4254 66.7886 21.4958 70.0513 24.7585Z" fill="#81C9D8"/>
<path d="M40.3282 79.1526L19.0326 100.448C18.2008 101.28 18.2008 102.628 19.0326 103.46C19.4484 103.875 19.9934 104.083 20.5382 104.083C21.083 104.083 21.628 103.875 22.0438 103.459L43.3394 82.1638L40.3282 79.1526Z" fill="#2E6774"/>
<path d="M40.7696 81.7226C63.1157 104.069 90.2882 113.126 101.461 101.953C112.634 90.7801 103.576 63.6076 81.2304 41.2616C58.8843 18.9156 31.7118 9.85816 20.5389 21.0312C9.36593 32.2041 18.4236 59.3766 40.7696 81.7226Z" fill="#52A7B9"/>
<path d="M46.0926 76.3997C62.6765 92.9835 82.7946 99.753 91.0277 91.5198C99.2608 83.2867 92.4913 63.1686 75.9074 46.5848C59.3236 30.001 39.2054 23.2316 30.9723 31.4647C22.7392 39.6979 29.5088 59.816 46.0926 76.3997Z" fill="#428998"/>
<path d="M51.4171 71.075C61.6961 81.354 74.3193 85.3963 79.6118 80.1038C84.9043 74.8113 80.8619 62.1881 70.5829 51.9091C60.3038 41.6301 47.6806 37.5878 42.3881 42.8803C37.0956 48.1728 41.138 60.796 51.4171 71.075Z" fill="#336975"/>
<path d="M102.967 19.5249C102.135 18.6932 100.787 18.6932 99.9553 19.5249L71.0235 48.4568C70.1919 49.2883 70.1919 50.6367 71.0235 51.4682C71.855 52.2998 73.2033 52.2998 74.0349 51.4682L102.967 22.5361C103.798 21.7044 103.798 20.3569 102.967 19.5249Z" fill="#2E6774"/>
<path d="M79.5416 42.9502C78.7098 42.1185 77.3619 42.1185 76.5302 42.9502L71.0233 48.4571C70.1917 49.2887 70.1917 50.637 71.0233 51.4686C71.8548 52.3001 73.2032 52.3001 74.0347 51.4686L79.5416 45.9617C80.3736 45.1294 80.3736 43.782 79.5416 42.9502Z" fill="white"/>
<path d="M67.3878 55.106C62.3596 50.0778 55.9003 48.3849 52.9605 51.3247C50.0207 54.2645 51.7136 60.7238 56.7418 65.752C61.7699 70.7802 68.2293 72.4731 71.1691 69.5333C74.1089 66.5935 72.416 60.1341 67.3878 55.106Z" fill="#143339"/>
</svg>
