<svg width="112" height="154" viewBox="0 0 112 154" fill="none" xmlns="http://www.w3.org/2000/svg">
<path d="M54.9632 151.505C83.865 151.505 107.295 128.075 107.295 99.1735C107.295 70.2717 83.865 46.8422 54.9632 46.8422C26.0614 46.8422 2.63184 70.2717 2.63184 99.1735C2.63184 128.075 26.0614 151.505 54.9632 151.505Z" fill="#26A7C5" stroke="#143339" stroke-width="3" stroke-miterlimit="10"/>
<path d="M54.9633 141.128C78.1341 141.128 96.9177 122.344 96.9177 99.1737C96.9177 76.0029 78.1341 57.2192 54.9633 57.2192C31.7924 57.2192 13.0088 76.0029 13.0088 99.1737C13.0088 122.344 31.7924 141.128 54.9633 141.128Z" fill="#FF757C" stroke="#143339" stroke-width="3" stroke-miterlimit="10"/>
<path d="M41.2632 84.2737L57.9175 102.271" stroke="#143339" stroke-width="5" stroke-miterlimit="10" stroke-linecap="round"/>
<path d="M79.6061 76.4515L51.7053 102.271" stroke="#143339" stroke-width="3" stroke-miterlimit="10" stroke-linecap="round"/>
<path d="M59.2814 45.804C59.2814 46.2298 58.7959 46.5751 58.1966 46.5751H51.7301C51.1308 46.5751 50.645 46.23 50.645 45.804V42.3398C50.645 41.914 51.1308 41.5688 51.7301 41.5688H58.1966C58.7959 41.5688 59.2814 41.914 59.2814 42.3398V45.804Z" fill="#26A7C5" stroke="#143339" stroke-width="3" stroke-miterlimit="10" stroke-linecap="round"/>
<path d="M65.279 39.5093C65.279 40.3428 64.1189 41.6644 62.6875 41.6644H47.2404C45.8091 41.6644 44.6484 40.3428 44.6484 39.5093V34.3502C44.6484 33.5169 45.8091 31.8685 47.2404 31.8685H62.6875C64.1189 31.8685 65.279 33.5169 65.279 34.3502V39.5093Z" fill="#26A7C5" stroke="#143339" stroke-width="3" stroke-miterlimit="10" stroke-linecap="round"/>
<path d="M54.9634 2.43311V19.6847" stroke="#143339" stroke-width="3" stroke-miterlimit="10" stroke-linecap="round"/>
<path d="M1.92651 23.6758L14.1677 35.917" stroke="#143339" stroke-width="3" stroke-miterlimit="10" stroke-linecap="round"/>
<path d="M110.073 24.0359L98.1929 35.9165" stroke="#143339" stroke-width="3" stroke-miterlimit="10" stroke-linecap="round"/>
<path d="M27.5051 17.2378L31.1891 23.6759" stroke="#143339" stroke-width="3" stroke-miterlimit="10" stroke-linecap="round"/>
<path d="M83.2902 17.2378L79.6062 23.6759" stroke="#143339" stroke-width="3" stroke-miterlimit="10" stroke-linecap="round"/>
</svg>
