<svg width="116" height="109" viewBox="0 0 116 109" fill="none" xmlns="http://www.w3.org/2000/svg">
<path d="M58.9847 108.048C88.6828 108.048 112.758 83.9725 112.758 54.2743C112.758 24.5762 88.6828 0.501099 58.9847 0.501099C29.2865 0.501099 5.21143 24.5762 5.21143 54.2743C5.21143 83.9725 29.2865 108.048 58.9847 108.048Z" fill="#FF757C"/>
<path d="M83.2919 44.8529H35.1685V86.9608H83.2919V44.8529Z" fill="#336975"/>
<path d="M86.1194 47.3135H32.3429C30.0782 47.3135 28.2427 45.4775 28.2427 43.2131V32.8206C28.2427 30.5559 30.0785 28.7202 32.3429 28.7202H86.1189C88.3836 28.7202 90.2193 30.5562 90.2193 32.8206V43.2127C90.2198 45.4775 88.3838 47.3135 86.1194 47.3135Z" fill="#143339"/>
<path d="M86.1184 71.2736H32.3419C30.0772 71.2736 28.2417 69.4376 28.2417 67.1732V56.7811C28.2417 54.5166 30.0775 52.6809 32.3419 52.6809H86.1179C88.3826 52.6809 90.2183 54.5169 90.2183 56.7811V67.1732C90.2188 69.438 88.3828 71.2736 86.1184 71.2736Z" fill="#143339"/>
<path d="M86.1184 95.6194H32.3419C30.0772 95.6194 28.2417 93.7834 28.2417 91.519V81.1269C28.2417 78.8625 30.0775 77.0269 32.3419 77.0269H86.1179C88.3826 77.0269 90.2183 78.8629 90.2183 81.1269V91.519C90.2188 93.7838 88.3828 95.6194 86.1184 95.6194Z" fill="#143339"/>
<path d="M37.5387 40.3865C38.8474 40.3865 39.9084 39.3255 39.9084 38.0168C39.9084 36.708 38.8474 35.6471 37.5387 35.6471C36.2299 35.6471 35.1689 36.708 35.1689 38.0168C35.1689 39.3255 36.2299 40.3865 37.5387 40.3865Z" fill="white"/>
<path d="M44.8297 40.3865C46.1384 40.3865 47.1994 39.3255 47.1994 38.0168C47.1994 36.708 46.1384 35.6471 44.8297 35.6471C43.5209 35.6471 42.46 36.708 42.46 38.0168C42.46 39.3255 43.5209 40.3865 44.8297 40.3865Z" fill="#F86E51"/>
<path d="M37.5387 88.6925C38.8474 88.6925 39.9084 87.6316 39.9084 86.3228C39.9084 85.0141 38.8474 83.9531 37.5387 83.9531C36.2299 83.9531 35.1689 85.0141 35.1689 86.3228C35.1689 87.6316 36.2299 88.6925 37.5387 88.6925Z" fill="white"/>
<path d="M44.8297 88.6925C46.1384 88.6925 47.1994 87.6316 47.1994 86.3228C47.1994 85.0141 46.1384 83.9531 44.8297 83.9531C43.5209 83.9531 42.46 85.0141 42.46 86.3228C42.46 87.6316 43.5209 88.6925 44.8297 88.6925Z" fill="#F86E51"/>
<path d="M37.5387 64.3466C38.8474 64.3466 39.9084 63.2856 39.9084 61.9769C39.9084 60.6681 38.8474 59.6072 37.5387 59.6072C36.2299 59.6072 35.1689 60.6681 35.1689 61.9769C35.1689 63.2856 36.2299 64.3466 37.5387 64.3466Z" fill="white"/>
<path d="M44.8297 64.3466C46.1384 64.3466 47.1994 63.2856 47.1994 61.9769C47.1994 60.6681 46.1384 59.6072 44.8297 59.6072C43.5209 59.6072 42.46 60.6681 42.46 61.9769C42.46 63.2856 43.5209 64.3466 44.8297 64.3466Z" fill="#F86E51"/>
<path d="M77.6255 45.1246C77.6255 50.5672 80.2358 55.3992 84.272 58.4395V66.1609L89.3849 61.0508C90.9341 61.5266 92.5791 61.7835 94.2843 61.7835H97.3995C106.6 61.7835 114.058 54.3248 114.058 45.1244C114.058 35.9241 106.6 28.4656 97.3995 28.4656H94.2843C85.0842 28.4658 77.6255 35.9243 77.6255 45.1246Z" fill="#FBB429"/>
<path d="M83.8009 67.2981C83.3412 67.1073 83.0411 66.6588 83.0411 66.1611V59.0398C81.093 57.4621 79.4745 55.4691 78.3386 53.2424C77.0484 50.7137 76.3945 47.9826 76.3945 45.1248C76.3945 35.2608 84.42 27.2351 94.2843 27.2351H97.3994C107.264 27.2351 115.289 35.2606 115.289 45.1248C115.289 54.9893 107.264 63.0147 97.3995 63.0147H94.2843C92.7449 63.0147 91.2208 62.8192 89.7438 62.4325L85.1421 67.0317C84.9064 67.267 84.5923 67.3918 84.2718 67.3918C84.113 67.3918 83.9531 67.3613 83.8009 67.2981ZM89.7462 59.8747C91.2115 60.3249 92.7382 60.553 94.2841 60.553H97.3992C105.907 60.553 112.827 53.6318 112.827 45.1248C112.827 36.6179 105.906 29.697 97.3992 29.697H94.2841C85.7769 29.697 78.8563 36.6181 78.8563 45.1248C78.8563 50.0152 81.1001 54.5102 85.0126 57.4565C85.3209 57.6891 85.5026 58.0531 85.5026 58.4398V63.1906L88.5148 60.1803C88.7492 59.9462 89.0636 59.8203 89.385 59.8203C89.5054 59.8203 89.6272 59.8378 89.7462 59.8747Z" fill="#111D20"/>
<path d="M96.1863 50.2239C95.5068 50.2239 94.9555 49.6728 94.9555 48.9929V46.036C94.9555 44.9334 95.7098 43.9944 96.7904 43.7529C98.1239 43.4544 99.0231 42.243 98.9287 40.8722C98.8351 39.515 97.7413 38.4209 96.3837 38.3274C95.6097 38.2739 94.8738 38.5342 94.3108 39.0593C93.7473 39.5855 93.437 40.2993 93.437 41.0698C93.437 41.7495 92.8857 42.3008 92.206 42.3008C91.5262 42.3008 90.9751 41.7497 90.9751 41.0698C90.9751 39.6308 91.5786 38.2423 92.6311 37.26C93.6977 36.2638 95.0919 35.7711 96.5529 35.8713C99.1297 36.049 101.207 38.126 101.384 40.7029C101.561 43.2658 99.8968 45.5349 97.4168 46.134V48.9927C97.4172 49.6728 96.8663 50.2239 96.1863 50.2239Z" fill="#111D20"/>
<path d="M96.1863 55.0927C95.8628 55.0927 95.5451 54.9622 95.3161 54.7334C95.0873 54.5042 94.9556 54.1868 94.9556 53.8618C94.9556 53.5384 95.0873 53.2206 95.3161 52.9916C95.5451 52.7624 95.8628 52.6311 96.1863 52.6311C96.51 52.6311 96.8276 52.7626 97.0564 52.9916C97.2853 53.2206 97.4169 53.5384 97.4169 53.8618C97.4169 54.1868 97.2851 54.503 97.0564 54.7334C96.8278 54.9622 96.5102 55.0927 96.1863 55.0927Z" fill="#111D20"/>
<path d="M38.4745 2.65417H15.3406C11.7917 2.65417 8.91455 5.53118 8.91455 9.08046V25.5738C8.91455 29.1231 11.7916 31.9999 15.3406 31.9999H28.5976L28.5012 32.0083L33.2051 36.7124L33.2084 31.9999H38.4744C42.0233 31.9999 44.9004 29.1231 44.9004 25.5738V9.08046C44.9004 5.53118 42.0234 2.65417 38.4745 2.65417Z" fill="#C7EAFF"/>
<path d="M45.9178 17.851V9.08027C45.9178 4.94621 42.5546 1.58301 38.4206 1.58301H26.1577H25.2972H15.3403C11.2065 1.58301 7.84326 4.94621 7.84326 9.08027V25.5738C7.84326 29.7075 11.2065 33.0707 15.3403 33.0707H28.0489L32.4476 37.4696C32.6524 37.6746 32.9263 37.7835 33.2052 37.7835C33.343 37.7835 33.482 37.757 33.6144 37.7021C34.0146 37.5365 34.2756 37.1462 34.276 36.7131L34.2783 33.0709H32.0098H38.4206H38.4741C42.6079 33.0709 45.9711 29.7077 45.9711 25.574V18.1838C45.9713 18.0674 45.952 17.9559 45.9178 17.851ZM33.2082 30.9289C32.6171 30.9289 32.1378 31.4078 32.1373 31.999L32.1358 34.1286L29.5795 31.5723C29.414 31.1925 29.0353 30.9289 28.5973 30.9289H15.3403C12.3877 30.9289 9.98542 28.5266 9.98542 25.574V9.08046C9.98542 6.1276 12.3877 3.72534 15.3403 3.72534H25.2972H26.1577H38.4206C41.3734 3.72534 43.7757 6.1276 43.7757 9.08046V25.574C43.7757 28.5266 41.3734 30.9289 38.4206 30.9289H33.2082Z" fill="#111D20"/>
<path d="M26.9075 21.5994C26.277 21.5994 25.7657 21.0881 25.7657 20.4579V17.7157C25.7657 16.6932 26.4655 15.8223 27.4675 15.5981C28.7042 15.3214 29.5384 14.198 29.4507 12.9264C29.3638 11.6677 28.3492 10.6531 27.0903 10.5663C26.3724 10.5167 25.6899 10.7581 25.1677 11.2452C24.6451 11.733 24.3573 12.3951 24.3573 13.1096C24.3573 13.7402 23.846 14.2511 23.2158 14.2511C22.5855 14.2511 22.0742 13.74 22.0742 13.1096C22.0742 11.7752 22.6341 10.4872 23.6101 9.57612C24.5996 8.65247 25.8923 8.19537 27.2473 8.28832C29.6371 8.45311 31.5636 10.3794 31.7282 12.7694C31.8919 15.146 30.3487 17.2509 28.0487 17.8062V20.4575C28.049 21.0881 27.5379 21.5994 26.9075 21.5994Z" fill="#111D20"/>
<path d="M26.9079 26.1148C26.6077 26.1148 26.3131 25.9938 26.1008 25.7814C25.8885 25.5689 25.7661 25.2746 25.7661 24.9732C25.7661 24.6731 25.8883 24.3784 26.1008 24.1662C26.3131 23.9537 26.6077 23.8317 26.9079 23.8317C27.2082 23.8317 27.5026 23.9537 27.7149 24.1662C27.927 24.3784 28.0492 24.6729 28.0492 24.9732C28.0492 25.2746 27.9272 25.5682 27.7149 25.7814C27.5026 25.9938 27.2082 26.1148 26.9079 26.1148Z" fill="#111D20"/>
<path d="M31.5915 83.9561L28.1077 77.4476C29.3373 75.6772 30.0454 73.5254 30.0454 71.0511C30.0454 63.6675 23.7637 58.5914 16.0149 58.5914C8.26605 58.5914 1.98438 63.6675 1.98438 71.0511C1.98438 78.4347 8.26605 82.9651 16.0149 82.9651C19.1385 82.9651 22.023 82.2279 24.3547 80.8651L31.5915 83.9561Z" fill="#88DF9B"/>
<path d="M15.9157 74.4497C15.4101 74.4497 15.0001 74.0397 15.0001 73.534V71.3344C15.0001 70.5141 15.5614 69.8154 16.3652 69.6357C17.3571 69.4138 18.0263 68.5125 17.9559 67.493C17.8862 66.4831 17.0724 65.6693 16.0625 65.5997C15.4867 65.5598 14.9393 65.7536 14.5204 66.1443C14.1014 66.5355 13.8704 67.0666 13.8704 67.64C13.8704 68.1455 13.4604 68.5554 12.9547 68.5554C12.4492 68.5554 12.0391 68.1455 12.0391 67.64C12.0391 66.5695 12.4882 65.5366 13.271 64.8055C14.0646 64.0647 15.1018 63.698 16.1884 63.7726C18.1056 63.9048 19.6507 65.45 19.7828 67.3668C19.9143 69.2734 18.6763 70.9619 16.8312 71.4073V73.534C16.8312 74.0397 16.4214 74.4497 15.9157 74.4497Z" fill="#111D20"/>
<path d="M15.9158 78.0715C15.675 78.0715 15.4387 77.9744 15.2685 77.8041C15.0982 77.6337 15 77.3976 15 77.1557C15 76.9151 15.098 76.679 15.2685 76.5083C15.4387 76.3379 15.675 76.2402 15.9158 76.2402C16.1567 76.2402 16.3931 76.3379 16.5632 76.5083C16.7333 76.679 16.8315 76.9149 16.8315 77.1557C16.8315 77.3976 16.7336 77.633 16.5632 77.8041C16.3929 77.9742 16.1567 78.0715 15.9158 78.0715Z" fill="#111D20"/>
<path d="M31.5911 85.2292C31.4228 85.2292 31.2528 85.1958 31.0913 85.1268L24.4272 82.2808C21.9944 83.5633 19.1012 84.2383 16.0147 84.2383C11.8657 84.2383 8.05796 83.0054 5.29246 80.7665C2.33797 78.3746 0.710938 74.9243 0.710938 71.051C0.710938 63.222 7.29001 57.3181 16.0147 57.3181C24.7394 57.3181 31.3184 63.222 31.3184 71.051C31.3184 73.4284 30.7355 75.5965 29.5843 77.5082L32.7139 83.3552C32.9689 83.8318 32.8955 84.4175 32.5304 84.816C32.2839 85.085 31.9411 85.2292 31.5911 85.2292ZM16.0149 59.8646C8.74206 59.8646 3.25762 64.6737 3.25762 71.051C3.25762 77.3162 8.5036 81.6918 16.0149 81.6918C18.8948 81.6918 21.5564 81.0259 23.712 79.7659C24.06 79.5622 24.4838 79.536 24.8547 79.694L28.7585 81.3615L26.985 78.0483C26.7593 77.6267 26.7889 77.1139 27.0618 76.721C28.1966 75.0871 28.7719 73.1792 28.7719 71.0509C28.7721 64.6737 23.2877 59.8646 16.0149 59.8646Z" fill="#111D20"/>
</svg>
