<svg width="118" height="110" viewBox="0 0 118 110" fill="none" xmlns="http://www.w3.org/2000/svg">
<path d="M53.9844 109.048C83.6825 109.048 107.758 84.9725 107.758 55.2743C107.758 25.5762 83.6825 1.5011 53.9844 1.5011C24.2863 1.5011 0.211182 25.5762 0.211182 55.2743C0.211182 84.9725 24.2863 109.048 53.9844 109.048Z" fill="#4A9DAF"/>
<path d="M78.2916 41.048H30.1682V83.1558H78.2916V41.048Z" fill="#336975"/>
<path d="M81.1192 43.5086H27.3427C25.0779 43.5086 23.2424 41.6725 23.2424 39.4082V29.0157C23.2424 26.7509 25.0783 24.9153 27.3427 24.9153H81.1186C83.3834 24.9153 85.219 26.7513 85.219 29.0157V39.4078C85.2196 41.6725 83.3836 43.5086 81.1192 43.5086Z" fill="#224E57"/>
<path d="M81.1182 67.4687H27.3417C25.0769 67.4687 23.2415 65.6327 23.2415 63.3683V52.9762C23.2415 50.7116 25.0773 48.876 27.3417 48.876H81.1176C83.3824 48.876 85.2181 50.712 85.2181 52.9762V63.3683C85.2186 65.6331 83.3826 67.4687 81.1182 67.4687Z" fill="#224E57"/>
<path d="M81.1182 91.8145H27.3417C25.0769 91.8145 23.2415 89.9785 23.2415 87.7141V77.322C23.2415 75.0576 25.0773 73.2219 27.3417 73.2219H81.1176C83.3824 73.2219 85.2181 75.0579 85.2181 77.322V87.7141C85.2186 89.9788 83.3826 91.8145 81.1182 91.8145Z" fill="#224E57"/>
<path d="M32.5384 36.5816C33.8472 36.5816 34.9081 35.5206 34.9081 34.2119C34.9081 32.9031 33.8472 31.8422 32.5384 31.8422C31.2297 31.8422 30.1687 32.9031 30.1687 34.2119C30.1687 35.5206 31.2297 36.5816 32.5384 36.5816Z" fill="white"/>
<path d="M39.8294 36.5816C41.1382 36.5816 42.1991 35.5206 42.1991 34.2119C42.1991 32.9031 41.1382 31.8422 39.8294 31.8422C38.5207 31.8422 37.4597 32.9031 37.4597 34.2119C37.4597 35.5206 38.5207 36.5816 39.8294 36.5816Z" fill="#F86E51"/>
<path d="M32.5384 84.8876C33.8472 84.8876 34.9081 83.8266 34.9081 82.5179C34.9081 81.2091 33.8472 80.1482 32.5384 80.1482C31.2297 80.1482 30.1687 81.2091 30.1687 82.5179C30.1687 83.8266 31.2297 84.8876 32.5384 84.8876Z" fill="white"/>
<path d="M39.8294 84.8876C41.1382 84.8876 42.1991 83.8266 42.1991 82.5179C42.1991 81.2091 41.1382 80.1482 39.8294 80.1482C38.5207 80.1482 37.4597 81.2091 37.4597 82.5179C37.4597 83.8266 38.5207 84.8876 39.8294 84.8876Z" fill="#F86E51"/>
<path d="M32.5384 60.5417C33.8472 60.5417 34.9081 59.4807 34.9081 58.172C34.9081 56.8632 33.8472 55.8022 32.5384 55.8022C31.2297 55.8022 30.1687 56.8632 30.1687 58.172C30.1687 59.4807 31.2297 60.5417 32.5384 60.5417Z" fill="white"/>
<path d="M39.8294 60.5417C41.1382 60.5417 42.1991 59.4807 42.1991 58.172C42.1991 56.8632 41.1382 55.8022 39.8294 55.8022C38.5207 55.8022 37.4597 56.8632 37.4597 58.172C37.4597 59.4807 38.5207 60.5417 39.8294 60.5417Z" fill="#F86E51"/>
<path d="M85.6886 5.98364C86.2659 4.98364 87.7093 4.98364 88.2866 5.98364L109.824 43.2871C110.401 44.2871 109.679 45.5371 108.525 45.5371H65.4505C64.2958 45.5371 63.5741 44.2871 64.1514 43.2871L85.6886 5.98364Z" fill="#FB4B54" stroke="#111D20" stroke-width="3"/>
<path d="M86.9875 38.9617C86.5871 38.9617 86.1937 38.8003 85.9102 38.517C85.6269 38.2333 85.4639 37.8403 85.4639 37.4379C85.4639 37.0375 85.6269 36.6441 85.9102 36.3606C86.1937 36.0769 86.5871 35.9143 86.9875 35.9143C87.3883 35.9143 87.7815 36.0771 88.0647 36.3606C88.348 36.6441 88.5111 37.0375 88.5111 37.4379C88.5111 37.8403 88.3478 38.2317 88.0647 38.517C87.7817 38.8003 87.3885 38.9617 86.9875 38.9617Z" fill="white"/>
<line x1="86.8799" y1="18.5835" x2="86.8799" y2="32.5049" stroke="white" stroke-width="2.9" stroke-linecap="round"/>
</svg>
