<svg width="108" height="120" viewBox="0 0 108 120" fill="none" xmlns="http://www.w3.org/2000/svg">
<path d="M53.7801 119.048C83.4782 119.048 107.553 94.9725 107.553 65.2743C107.553 35.5762 83.4782 11.5011 53.7801 11.5011C24.0819 11.5011 0.00683594 35.5762 0.00683594 65.2743C0.00683594 94.9725 24.0819 119.048 53.7801 119.048Z" fill="#FF757C"/>
<path d="M78.0873 48.9994H29.9639V91.1073H78.0873V48.9994Z" fill="#336975"/>
<path d="M80.9148 51.46H27.1383C24.8736 51.46 23.0381 49.624 23.0381 47.3596V36.9671C23.0381 34.7024 24.8739 32.8667 27.1383 32.8667H80.9143C83.179 32.8667 85.0147 34.7027 85.0147 36.9671V47.3592C85.0152 49.624 83.1792 51.46 80.9148 51.46Z" fill="#143339"/>
<path d="M80.9138 75.4201H27.1373C24.8726 75.4201 23.0371 73.5841 23.0371 71.3197V60.9276C23.0371 58.6631 24.873 56.8274 27.1373 56.8274H80.9133C83.1781 56.8274 85.0137 58.6634 85.0137 60.9276V71.3197C85.0143 73.5845 83.1782 75.4201 80.9138 75.4201Z" fill="#143339"/>
<path d="M80.9138 99.7659H27.1373C24.8726 99.7659 23.0371 97.9299 23.0371 95.6655V85.2734C23.0371 83.009 24.873 81.1733 27.1373 81.1733H80.9133C83.1781 81.1733 85.0137 83.0094 85.0137 85.2734V95.6655C85.0143 97.9302 83.1782 99.7659 80.9138 99.7659Z" fill="#143339"/>
<path d="M32.3341 44.533C33.6428 44.533 34.7038 43.472 34.7038 42.1633C34.7038 40.8545 33.6428 39.7936 32.3341 39.7936C31.0253 39.7936 29.9644 40.8545 29.9644 42.1633C29.9644 43.472 31.0253 44.533 32.3341 44.533Z" fill="white"/>
<path d="M39.6251 44.533C40.9338 44.533 41.9948 43.472 41.9948 42.1633C41.9948 40.8545 40.9338 39.7936 39.6251 39.7936C38.3163 39.7936 37.2554 40.8545 37.2554 42.1633C37.2554 43.472 38.3163 44.533 39.6251 44.533Z" fill="#F86E51"/>
<path d="M32.3341 92.839C33.6428 92.839 34.7038 91.7781 34.7038 90.4693C34.7038 89.1606 33.6428 88.0996 32.3341 88.0996C31.0253 88.0996 29.9644 89.1606 29.9644 90.4693C29.9644 91.7781 31.0253 92.839 32.3341 92.839Z" fill="white"/>
<path d="M39.6251 92.839C40.9338 92.839 41.9948 91.7781 41.9948 90.4693C41.9948 89.1606 40.9338 88.0996 39.6251 88.0996C38.3163 88.0996 37.2554 89.1606 37.2554 90.4693C37.2554 91.7781 38.3163 92.839 39.6251 92.839Z" fill="#F86E51"/>
<path d="M32.3341 68.4931C33.6428 68.4931 34.7038 67.4321 34.7038 66.1234C34.7038 64.8146 33.6428 63.7537 32.3341 63.7537C31.0253 63.7537 29.9644 64.8146 29.9644 66.1234C29.9644 67.4321 31.0253 68.4931 32.3341 68.4931Z" fill="white"/>
<path d="M39.6251 68.4931C40.9338 68.4931 41.9948 67.4321 41.9948 66.1234C41.9948 64.8146 40.9338 63.7537 39.6251 63.7537C38.3163 63.7537 37.2554 64.8146 37.2554 66.1234C37.2554 67.4321 38.3163 68.4931 39.6251 68.4931Z" fill="#F86E51"/>
<path d="M43.3808 28.0181C42.8855 28.0181 42.3928 27.8233 42.0223 27.4337C40.8852 26.2368 39.3802 23.0219 41.8262 19.4173C42.9594 17.7468 43.7743 14.5471 43.1758 12.0846C42.8919 10.9183 42.3304 10.1009 41.5066 9.65266C40.5797 9.14845 40.2359 7.98979 40.7388 7.06286C41.243 6.13593 42.4017 5.79215 43.3286 6.29508C45.115 7.26531 46.3462 8.95492 46.8861 11.1806C47.7774 14.8437 46.6047 19.1754 44.9864 21.5602C43.7628 23.3644 44.5471 24.5192 44.8171 24.8299C45.497 25.6142 45.4422 26.8149 44.6744 27.5126C44.3039 27.8501 43.8417 28.0181 43.3808 28.0181Z" fill="#111D20"/>
<path d="M55.4363 22.2628C54.941 22.2628 54.4482 22.068 54.0777 21.6784C52.9407 20.4815 51.4357 17.2666 53.8816 13.662C55.0148 11.9915 55.8297 8.79176 55.23 6.32928C54.9461 5.16298 54.3846 4.34555 53.5608 3.89863C52.6339 3.39442 52.2901 2.23576 52.793 1.30883C53.2972 0.381898 54.4546 0.038119 55.3828 0.541056C57.1692 1.51128 58.4004 3.20089 58.9403 5.42654C59.8316 9.0897 58.6589 13.4213 57.0406 15.8074C55.817 17.6116 56.6013 18.7665 56.8713 19.0771C57.5512 19.8615 57.4964 21.0621 56.7286 21.7599C56.3594 22.0948 55.8972 22.2628 55.4363 22.2628Z" fill="#111D20"/>
<path d="M66.7068 28.0181C66.2115 28.0181 65.7188 27.8233 65.3482 27.4336C64.2112 26.2368 62.7062 23.0218 65.1522 19.4172C66.2854 17.7467 67.1002 14.547 66.5005 12.0845C66.2166 10.9182 65.6551 10.1008 64.8313 9.65388C63.9044 9.14967 63.5606 7.99101 64.0635 7.06408C64.5677 6.13715 65.7251 5.79337 66.6533 6.2963C68.4397 7.26653 69.6709 8.95614 70.2108 11.1818C71.1021 14.845 69.9294 19.1766 68.3111 21.5627C67.0875 23.3669 67.8718 24.5217 68.1418 24.8324C68.8217 25.6167 68.7669 26.8174 67.9992 27.5151C67.6299 27.85 67.1677 28.0181 66.7068 28.0181Z" fill="#111D20"/>
</svg>
