<svg width="45" height="46" viewBox="0 0 45 46" fill="none" xmlns="http://www.w3.org/2000/svg">
<path d="M15.8884 35.4039L9.20727 39.048C8.81521 39.2618 8.46286 39.5246 8.13501 39.811C12.0303 43.0951 17.0587 45.0764 22.5526 45.0764C28.006 45.0764 33.0023 43.1247 36.8866 39.8853C36.5283 39.5829 36.1396 39.3108 35.7087 39.0962L28.5544 35.5197C27.63 35.0575 27.0461 34.1129 27.0461 33.0796V30.2728C27.2472 30.0439 27.4771 29.7498 27.723 29.4026C28.6981 28.0254 29.4357 26.5105 29.9469 24.9212C30.8645 24.6382 31.5405 23.7907 31.5405 22.7836V19.7876C31.5405 19.1285 31.2473 18.5396 30.7919 18.1273V13.7963C30.7919 13.7963 31.6816 7.05651 22.5535 7.05651C13.4253 7.05651 14.3151 13.7963 14.3151 13.7963V18.1273C13.8588 18.5396 13.5664 19.1285 13.5664 19.7876V22.7836C13.5664 23.5727 13.9813 24.2672 14.6024 24.6686C15.351 27.9274 17.3113 30.2728 17.3113 30.2728V33.0103C17.3105 34.0073 16.7646 34.9257 15.8884 35.4039Z" fill="#CDEAEF"/>
<path d="M22.9353 0.29982C10.571 0.0885935 0.37571 9.9402 0.164469 22.3037C0.0444848 29.3139 3.16915 35.6144 8.14429 39.8042C8.4696 39.5204 8.81857 39.2601 9.2064 39.0489L15.8875 35.4048C16.7637 34.9266 17.3096 34.0082 17.3096 33.0095V30.272C17.3096 30.272 15.3484 27.9266 14.6006 24.6678C13.9804 24.2664 13.5647 23.5728 13.5647 22.7828V19.7867C13.5647 19.1277 13.8579 18.5388 14.3134 18.1265V13.7955C14.3134 13.7955 13.4236 7.05569 22.5517 7.05569C31.6799 7.05569 30.7901 13.7955 30.7901 13.7955V18.1265C31.2464 18.5388 31.5387 19.1277 31.5387 19.7867V22.7828C31.5387 23.7899 30.8628 24.6373 29.9451 24.9204C29.4339 26.5096 28.6963 28.0246 27.7212 29.4018C27.4753 29.749 27.2455 30.043 27.0444 30.272V33.0788C27.0444 34.1121 27.6283 35.0576 28.5527 35.5189L35.7069 39.0954C36.1362 39.31 36.524 39.5812 36.8814 39.8828C41.7062 35.8594 44.8232 29.8436 44.939 23.0692C45.1519 10.7057 35.3005 0.511047 22.9353 0.29982Z" fill="#26A7C5"/>
</svg>
