<svg width="30" height="28" viewBox="0 0 30 28" fill="none" xmlns="http://www.w3.org/2000/svg">
<path d="M12.9501 26.4332C13.9565 26.4332 14.7723 25.6174 14.7723 24.611C14.7723 23.6046 13.9565 22.7888 12.9501 22.7888C11.9438 22.7888 11.1279 23.6046 11.1279 24.611C11.1279 25.6174 11.9438 26.4332 12.9501 26.4332Z" stroke="#3B3B3B" stroke-width="1.5" stroke-miterlimit="10"/>
<path d="M21.6758 26.4332C22.6822 26.4332 23.4981 25.6173 23.4981 24.6109C23.4981 23.6044 22.6822 22.7886 21.6758 22.7886C20.6694 22.7886 19.8535 23.6044 19.8535 24.6109C19.8535 25.6173 20.6694 26.4332 21.6758 26.4332Z" stroke="#3B3B3B" stroke-width="1.5" stroke-miterlimit="10"/>
<path d="M26.0258 20.3375H8.84884L5.11878 3.16048L1.60254 1.5686" stroke="#3B3B3B" stroke-width="1.5" stroke-miterlimit="10" stroke-linecap="round" stroke-linejoin="round"/>
<path d="M5.76367 6.13013H28.7344L26.4853 16.956H8.13848" stroke="#3B3B3B" stroke-width="1.5" stroke-miterlimit="10" stroke-linecap="round" stroke-linejoin="round"/>
<path d="M12.1831 9.72095H22.4409" stroke="#3B3B3B" stroke-width="1.5" stroke-miterlimit="10" stroke-linecap="round" stroke-linejoin="round"/>
<path d="M12.6372 13.3274H21.987" stroke="#3B3B3B" stroke-width="1.5" stroke-miterlimit="10" stroke-linecap="round" stroke-linejoin="round"/>
</svg>
