<svg width="27" height="28" viewBox="0 0 27 28" fill="none" xmlns="http://www.w3.org/2000/svg">
<circle cx="13.6268" cy="14.3188" r="10.1668" fill="white"/>
<path d="M13.6267 0.873169C6.36014 0.873169 0.448242 6.78507 0.448242 14.0517C0.448242 21.3177 6.36014 27.2302 13.6267 27.2302C20.8928 27.2302 26.8052 21.3177 26.8052 14.0517C26.8052 6.78507 20.8939 0.873169 13.6267 0.873169ZM16.9041 14.5156H14.7601C14.7601 17.9411 14.7601 22.1575 14.7601 22.1575H11.583C11.583 22.1575 11.583 17.982 11.583 14.5156H10.0728V11.8147H11.583V10.0677C11.583 8.81657 12.1776 6.86151 14.7893 6.86151L17.1435 6.87053V9.49232C17.1435 9.49232 15.7129 9.49232 15.4348 9.49232C15.1566 9.49232 14.7611 9.6314 14.7611 10.2281V11.8153H17.1817L16.9041 14.5156Z" fill="#3B5998"/>
</svg>
