<svg width="27" height="28" viewBox="0 0 27 28" fill="none" xmlns="http://www.w3.org/2000/svg">
<path d="M13.7639 27.2302C21.0422 27.2302 26.9424 21.3299 26.9424 14.0517C26.9424 6.77338 21.0422 0.873169 13.7639 0.873169C6.48566 0.873169 0.585449 6.77338 0.585449 14.0517C0.585449 21.3299 6.48566 27.2302 13.7639 27.2302Z" fill="#DC4E41"/>
<path d="M6.95424 14.0606C6.81758 10.4627 9.96906 7.13772 13.5706 7.09458C15.4062 6.93802 17.1921 7.65085 18.5813 8.81346C18.0114 9.44002 17.4316 10.0593 16.8123 10.6391C15.5894 9.89613 14.1169 9.32991 12.6877 9.83278C10.3823 10.4892 8.98624 13.2111 9.83935 15.4664C10.5458 17.8217 13.4107 19.1144 15.656 18.1249C16.8186 17.7086 17.5852 16.6359 17.9215 15.4832C16.5891 15.4567 15.2563 15.4733 13.9239 15.4365C13.9206 14.6437 13.9172 13.854 13.9206 13.0612C16.1426 13.0579 18.368 13.0512 20.5934 13.0711C20.73 15.0136 20.4434 17.0923 19.1807 18.6513C17.4515 20.8767 14.2569 21.5298 11.6581 20.6568C8.89997 19.7509 6.89421 16.9723 6.95424 14.0606Z" fill="white"/>
</svg>
