<svg width="57" height="45" viewBox="0 0 57 45" fill="none" xmlns="http://www.w3.org/2000/svg">
<path d="M55.6467 0.421875H1.38797C0.853137 0.421875 0.419067 0.854976 0.419067 1.39078V44.0227C0.419067 44.5585 0.853137 44.9916 1.38797 44.9916H55.6467C56.1816 44.9916 56.6156 44.5585 56.6156 44.0227V1.39078C56.6156 0.854976 56.1816 0.421875 55.6467 0.421875ZM54.6778 43.0538H2.35688V2.35969H54.6778V43.0538Z" fill="white"/>
<path d="M15.9216 21.8716C18.8971 21.8716 21.3174 19.4513 21.3174 16.4768C21.3174 13.5003 18.8971 11.08 15.9216 11.08C12.9461 11.08 10.5258 13.5003 10.5258 16.4758C10.5258 19.4513 12.9461 21.8716 15.9216 21.8716ZM15.9216 13.0178C17.8284 13.0178 19.3796 14.57 19.3796 16.4758C19.3796 18.3816 17.8284 19.9338 15.9216 19.9338C14.0148 19.9338 12.4636 18.3826 12.4636 16.4768C12.4636 14.5709 14.0148 13.0178 15.9216 13.0178Z" fill="white"/>
<path d="M7.20147 39.1783C7.4282 39.1783 7.65686 39.0989 7.84095 38.9371L23.6467 25.0216L33.6284 35.0023C34.0072 35.3812 34.6196 35.3812 34.9984 35.0023C35.3773 34.6235 35.3773 34.0111 34.9984 33.6323L30.3409 28.9748L39.2364 19.2334L50.1473 29.2354C50.5416 29.5968 51.1549 29.5697 51.5163 29.1753C51.8778 28.781 51.8516 28.1677 51.4563 27.8063L39.8294 17.1483C39.6395 16.9749 39.3866 16.8886 39.1318 16.8944C38.875 16.9061 38.6328 17.0194 38.4594 17.2093L28.9699 27.6028L24.3744 23.0073C24.012 22.6459 23.4326 22.6275 23.0489 22.9646L6.56103 37.4818C6.15893 37.8354 6.12018 38.4478 6.47383 38.8499C6.66567 39.0679 6.93309 39.1783 7.20147 39.1783Z" fill="white"/>
</svg>
