<svg width="109" height="109" viewBox="0 0 109 109" fill="none" xmlns="http://www.w3.org/2000/svg">
<path d="M108.635 54.4524C108.635 69.2271 102.696 82.6167 93.0718 92.3577C87.6311 97.869 81.0122 102.213 73.6226 104.981C71.3965 105.818 69.0977 106.509 66.7418 107.046C62.8663 107.932 58.8326 108.398 54.6886 108.398C49.9304 108.398 45.3174 107.782 40.9246 106.626C32.4408 104.395 24.7739 100.148 18.4654 94.4277C7.57948 84.5587 0.742676 70.3037 0.742676 54.4524C0.742676 24.6589 24.8951 0.50647 54.6886 0.50647C84.4822 0.50647 108.635 24.6589 108.635 54.4524Z" fill="#FF757C"/>
<path d="M40.9246 50.4406V106.626C32.4407 104.395 24.7738 100.148 18.4653 94.4276V50.4406H40.9246Z" fill="#0E7886"/>
<path d="M39.9335 4.25183V20.3859C39.9335 26.0403 35.3496 30.6242 29.6952 30.6242C24.0407 30.6242 19.4568 26.0403 19.4568 20.3859V4.25183C9.76317 8.27123 2.94385 17.8247 2.94385 28.9724C2.94385 43.7468 14.9209 55.7239 29.6954 55.7239C44.4698 55.7239 56.4469 43.7468 56.4469 28.9724C56.4469 17.8247 49.6276 8.27123 39.9335 4.25183Z" fill="#0E7886"/>
<path d="M86.0626 37.936H77.1455V85.8247H86.0626V37.936Z" fill="#D3D3D3"/>
<path d="M91.348 27.4774L84.8527 5.68005H78.3575L71.8623 27.4774L77.1465 38.5957H86.0638L91.348 27.4774Z" fill="#D3D3D3"/>
<path d="M93.0718 92.3577C85.9905 99.5291 76.9143 104.726 66.7417 107.046V100.141C66.7417 94.2755 71.4978 89.5217 77.3613 89.5217H85.8472C88.637 89.5217 91.1759 90.5983 93.0718 92.3577Z" fill="#FBB429"/>
<path d="M93.1648 90.6226H70.0449C68.2209 90.6226 66.7422 89.1438 66.7422 87.3199C66.7422 85.4959 68.2211 84.0172 70.0449 84.0172H93.1646C94.9886 84.0172 96.4673 85.4961 96.4673 87.3199C96.4675 89.144 94.9888 90.6226 93.1648 90.6226Z" fill="#FBB429"/>
</svg>
