<svg width="22" height="26" viewBox="0 0 22 26" fill="none" xmlns="http://www.w3.org/2000/svg">
<path d="M10.8968 4.56889C7.2848 4.56889 4.35668 7.49701 4.35668 11.109V15.1305C4.41724 15.8093 3.9159 18.0584 1.42603 21.6241H20.2538C19.3316 20.1512 17.4693 16.8384 17.4494 15.1715C17.4222 12.8947 17.4222 12.5681 17.437 11.109C17.437 7.49701 14.5088 4.56889 10.8968 4.56889Z" stroke="#3B3B3B" stroke-width="1.5" stroke-linecap="round" stroke-linejoin="round"/>
<path d="M9.31152 4.77673V3.30657C9.31152 2.43886 10.0149 1.73544 10.8827 1.73544C11.7504 1.73544 12.4538 2.43886 12.4538 3.30657V4.74909" stroke="#3B3B3B" stroke-width="1.5"/>
<path d="M9.1054 21.629V20.879H8.64246L8.43496 21.2929L9.1054 21.629ZM12.6883 21.629L13.3588 21.2929L13.1513 20.879H12.6883V21.629ZM8.43496 21.2929C8.24859 21.6645 8.14404 22.0839 8.14404 22.5255H9.64404C9.64404 22.3226 9.69173 22.1329 9.77584 21.9652L8.43496 21.2929ZM8.14404 22.5255C8.14404 24.0459 9.37652 25.2783 10.8969 25.2783V23.7783C10.205 23.7783 9.64404 23.2174 9.64404 22.5255H8.14404ZM10.8969 25.2783C12.4172 25.2783 13.6497 24.0459 13.6497 22.5255H12.1497C12.1497 23.2174 11.5888 23.7783 10.8969 23.7783V25.2783ZM13.6497 22.5255C13.6497 22.0839 13.5451 21.6645 13.3588 21.2929L12.0179 21.9652C12.102 22.1329 12.1497 22.3226 12.1497 22.5255H13.6497ZM12.6883 20.879H9.1054V22.379H12.6883V20.879Z" fill="#3B3B3B"/>
</svg>
