<svg width="107" height="34" viewBox="0 0 107 34" fill="none" xmlns="http://www.w3.org/2000/svg">
<path d="M106.596 25.1232C105.289 25.2165 103.982 25.3099 102.489 25.4032C102.115 21.1094 102.489 16.9089 102.209 12.8018H95.8613C95.6746 14.8554 95.7679 16.9089 95.7679 18.9625C95.7679 21.0161 95.7679 23.0696 95.7679 25.3099H91.8475C91.7541 24.8432 91.7542 24.3764 91.7542 23.9097C91.7542 20.0826 91.7542 16.1622 91.7542 12.3351C91.7542 9.81481 92.7809 8.69468 95.3012 8.69468C97.4481 8.69468 99.595 8.78803 101.742 8.69468C103.889 8.508 105.569 9.1614 106.689 11.0283V25.1232H106.596Z" fill="#152437"/>
<path d="M17.1724 29.136C18.0125 26.8024 18.3859 24.3755 18.4792 21.8552H15.8656C15.9589 24.4688 16.3323 26.8024 17.1724 29.136ZM12.3185 15.6945C9.7049 15.9745 7.27797 16.0679 4.66434 17.0946C7.37131 17.8414 9.7049 18.3081 12.3185 18.3081V15.6945ZM22.1196 15.6011C22.0263 16.1612 22.0263 16.5346 21.9329 16.8146C21.6529 17.5614 21.1862 18.0281 20.3461 18.0281C19.506 18.0281 18.9459 17.468 18.8526 16.5346C18.7593 16.0679 18.7593 15.6011 18.7593 15.2278C18.4792 12.5208 18.1992 9.72048 17.9192 7.01351C17.8258 6.3601 17.6391 5.7067 17.4524 5.05329C16.4257 7.38688 16.0523 9.72048 16.0523 12.1474C17.0791 12.4275 18.0125 12.8008 18.0125 14.0143C18.0125 15.4145 16.7057 15.4145 15.8656 15.7878V18.6815C20.5328 18.7748 25.0133 18.4948 29.4938 17.2813C29.4938 17.0946 29.4938 17.0013 29.4938 16.8146C26.9735 16.3479 24.6399 15.9745 22.1196 15.6011ZM21.8396 21.7618C21.6529 23.3487 21.4662 24.9355 21.1862 26.3357C20.9062 27.6425 20.6261 28.9493 20.2528 30.2561C20.1594 30.7228 19.8794 31.1896 19.6927 31.6563C18.2925 34.1766 16.0523 34.1766 14.6521 31.7496C14.2788 31.0962 13.9987 30.4428 13.812 29.7894C13.4387 28.0159 13.0653 26.149 12.7853 24.3755C12.5986 23.5354 12.5986 22.6953 12.4119 21.8552C10.6383 21.5751 8.86481 21.4818 7.18462 21.1084C5.69112 20.7351 4.10428 20.3617 2.70412 19.7083C1.49065 19.2416 0.463867 18.4015 0.463867 17.0013C0.463867 15.6945 1.58399 14.9477 2.61077 14.3877C5.03771 13.1742 7.65134 12.8942 10.265 12.6141C10.9184 12.5208 11.5718 12.5208 12.3185 12.4275C12.5986 10.6539 12.6919 8.97373 13.0653 7.29354C13.3453 5.98673 13.6253 4.77326 13.9987 3.55979C14.1854 2.99973 14.4654 2.43966 14.8388 1.8796C16.239 -0.0806212 18.1992 -0.080621 19.4127 1.97294C19.8794 2.71969 20.2528 3.55979 20.4394 4.39988C20.9062 6.26676 21.1862 8.22698 21.4662 10.1872C21.5596 10.8406 21.6529 11.494 21.7463 12.1474C23.8932 12.4275 25.9467 12.7075 28.0003 13.0809C29.1204 13.2675 30.2405 13.6409 31.3607 14.1076C32.4808 14.5744 33.6009 15.3211 33.6009 16.8146C33.6009 18.2148 32.5741 18.9615 31.454 19.6149C29.4004 20.6417 27.0669 21.0151 24.8266 21.2951C23.9865 21.5751 23.0531 21.6685 21.8396 21.7618Z" fill="#152437"/>
<path d="M78.1259 18.1226H83.5398V12.7087C81.7663 12.6153 81.1129 12.6153 80.6462 13.4554C79.7127 14.9489 78.966 16.5358 78.1259 18.1226ZM87.7403 25.3101H83.9132C83.8199 24.47 83.7265 23.5366 83.6332 22.4165C81.1129 22.3231 78.6859 22.4165 76.0723 22.4165C75.5122 23.3499 74.9522 24.3767 74.3921 25.3101H69.9116C70.1917 24.6567 70.3783 24.0966 70.6584 23.6299C72.6186 19.8962 74.5788 16.1624 76.539 12.4287C77.8458 9.81503 79.9928 8.60156 82.8864 8.60156C83.5398 8.60156 84.1932 8.60156 84.94 8.60156C86.5268 8.78825 87.7403 9.81503 87.7403 11.2152C87.8336 15.8824 87.7403 20.4562 87.7403 25.3101Z" fill="#152437"/>
<path d="M65.7113 15.8821C67.1114 13.2685 68.2315 11.0282 69.5383 8.69464H74.0189C73.7388 9.25471 73.5521 9.72142 73.3654 10.1881C71.3119 14.0152 69.2583 17.749 67.2981 21.6694C65.8979 24.3764 64.2178 26.1499 59.4572 25.3098V21.6694C60.5773 20.8293 62.6309 22.3228 63.471 20.0826C61.4174 16.4422 59.2705 12.8018 57.0303 8.88133C58.6171 8.41461 60.0173 8.69464 61.6041 8.69464C62.8176 10.9349 64.2178 13.2685 65.7113 15.8821Z" fill="#152437"/>
<path d="M48.536 25.3094H44.7089C44.6155 25.0294 44.5222 24.936 44.5222 24.7493C44.5222 21.2023 44.4289 17.5619 44.5222 14.0148C44.6155 11.4012 46.6691 9.16092 49.4694 8.78754C51.523 8.50751 53.5765 8.78754 55.8168 8.78754V12.708C54.3233 12.708 52.9231 12.708 51.523 12.708C49.096 12.708 48.6293 13.0814 48.6293 15.5083C48.6293 18.1219 48.6293 20.6422 48.6293 23.2558V25.3094H48.536Z" fill="#152437"/>
</svg>
