<svg width="106" height="46" viewBox="0 0 106 46" fill="none" xmlns="http://www.w3.org/2000/svg">
<path d="M40.0527 7.12115C40.0527 8.24127 39.1193 9.17471 37.9992 9.17471C36.879 9.17471 35.9456 8.24127 35.9456 7.12115C35.9456 6.00102 36.879 5.06758 37.9992 5.06758C39.1193 5.06758 40.0527 6.00102 40.0527 7.12115ZM46.0267 10.1081C46.0267 11.2283 45.0933 12.1617 43.9732 12.1617C42.853 12.1617 41.9196 11.2283 41.9196 10.1081C41.9196 8.98802 42.853 8.05459 43.9732 8.05459C45.0933 8.05459 46.0267 8.98802 46.0267 10.1081ZM51.9074 13.0952C51.9074 14.2153 50.9739 15.1487 49.8538 15.1487C48.7337 15.1487 47.8003 14.2153 47.8003 13.0952C47.8003 11.975 48.7337 11.0416 49.8538 11.0416C50.9739 10.9482 51.9074 11.8817 51.9074 13.0952ZM46.0267 15.9888C46.0267 17.1089 45.0933 18.0424 43.9732 18.0424C42.853 18.0424 41.9196 17.1089 41.9196 15.9888C41.9196 14.8687 42.853 13.9352 43.9732 13.9352C45.0933 13.9352 46.0267 14.8687 46.0267 15.9888ZM57.788 15.9888C57.788 17.1089 56.8546 18.0424 55.7345 18.0424C54.6144 18.0424 53.6809 17.1089 53.6809 15.9888C53.6809 14.8687 54.6144 13.9352 55.7345 13.9352C56.8546 13.9352 57.788 14.8687 57.788 15.9888ZM57.1346 21.8695C57.1346 22.6162 56.4812 23.2696 55.7345 23.2696C54.9877 23.2696 54.3343 22.6162 54.3343 21.8695C54.3343 21.1227 54.9877 20.4693 55.7345 20.4693C56.4812 20.4693 57.1346 21.1227 57.1346 21.8695ZM63.0153 18.9758C63.0153 19.7226 62.3619 20.376 61.6151 20.376C60.8684 20.376 60.215 19.7226 60.215 18.9758C60.215 18.2291 60.8684 17.5757 61.6151 17.5757C62.3619 17.5757 63.0153 18.2291 63.0153 18.9758ZM63.6687 13.0952C63.6687 14.2153 62.7353 15.1487 61.6151 15.1487C60.495 15.1487 59.5616 14.2153 59.5616 13.0952C59.5616 11.975 60.495 11.0416 61.6151 11.0416C62.8286 10.9482 63.6687 11.8817 63.6687 13.0952ZM57.788 10.1081C57.788 11.2283 56.8546 12.1617 55.7345 12.1617C54.6144 12.1617 53.6809 11.2283 53.6809 10.1081C53.6809 8.98802 54.6144 8.05459 55.7345 8.05459C56.8546 8.05459 57.788 8.98802 57.788 10.1081ZM51.254 18.9758C51.254 19.7226 50.6006 20.376 49.8538 20.376C49.1071 20.376 48.4537 19.7226 48.4537 18.9758C48.4537 18.2291 49.1071 17.5757 49.8538 17.5757C50.6006 17.5757 51.254 18.2291 51.254 18.9758ZM63.6687 7.12115C63.6687 8.24127 62.7353 9.17471 61.6151 9.17471C60.495 9.17471 59.5616 8.24127 59.5616 7.12115C59.5616 6.00102 60.495 5.06758 61.6151 5.06758C62.8286 5.06758 63.6687 6.00102 63.6687 7.12115ZM68.896 4.22749C68.896 4.97424 68.2426 5.62765 67.4958 5.62765C66.7491 5.62765 66.0956 4.97424 66.0956 4.22749C66.0956 3.48074 66.7491 2.82733 67.4958 2.82733C68.2426 2.82733 68.896 3.38739 68.896 4.22749ZM68.896 15.9888C68.896 16.7356 68.2426 17.389 67.4958 17.389C66.7491 17.389 66.0956 16.7356 66.0956 15.9888C66.0956 15.2421 66.7491 14.5887 67.4958 14.5887C68.2426 14.5887 68.896 15.2421 68.896 15.9888ZM51.254 7.12115C51.254 7.8679 50.6006 8.52131 49.8538 8.52131C49.1071 8.52131 48.4537 7.8679 48.4537 7.12115C48.4537 6.3744 49.1071 5.72099 49.8538 5.72099C50.6006 5.81433 51.254 6.3744 51.254 7.12115ZM45.28 21.8695C45.28 22.6162 44.6266 23.2696 43.8798 23.2696C43.1331 23.2696 42.4797 22.6162 42.4797 21.8695C42.4797 21.1227 43.1331 20.4693 43.8798 20.4693C44.6266 20.4693 45.28 21.1227 45.28 21.8695ZM40.0527 13.0952C40.0527 14.2153 39.1193 15.1487 37.9992 15.1487C36.879 15.1487 35.9456 14.2153 35.9456 13.0952C35.9456 11.975 36.879 11.0416 37.9992 11.0416C39.1193 10.9482 40.0527 11.8817 40.0527 13.0952ZM26.9846 18.9758C26.9846 19.4425 26.6112 19.8159 26.1445 19.8159C25.6778 19.8159 25.3044 19.4425 25.3044 18.9758C25.3044 18.5091 25.6778 18.1357 26.1445 18.1357C26.6112 18.1357 26.9846 18.5091 26.9846 18.9758ZM26.9846 13.0952C26.9846 13.5619 26.6112 13.9352 26.1445 13.9352C25.6778 13.9352 25.3044 13.5619 25.3044 13.0952C25.3044 12.6284 25.6778 12.2551 26.1445 12.2551C26.6112 12.2551 26.9846 12.6284 26.9846 13.0952ZM38.8392 18.8825C38.8392 19.3492 38.4659 19.7226 37.9992 19.7226C37.5324 19.7226 37.1591 19.3492 37.1591 18.8825C37.1591 18.4158 37.5324 18.0424 37.9992 18.0424C38.4659 18.1357 38.8392 18.5091 38.8392 18.8825ZM38.8392 1.24048C38.8392 1.7072 38.4659 2.08058 37.9992 2.08058C37.5324 2.08058 37.1591 1.7072 37.1591 1.24048C37.1591 0.773766 37.5324 0.400391 37.9992 0.400391C38.4659 0.400391 38.8392 0.773766 38.8392 1.24048ZM50.6006 24.8565C50.6006 25.3232 50.2272 25.6966 49.7605 25.6966C49.2938 25.6966 48.9204 25.3232 48.9204 24.8565C48.9204 24.3898 49.2938 24.0164 49.7605 24.0164C50.2272 24.1097 50.6006 24.3898 50.6006 24.8565ZM32.9586 4.22749C32.9586 4.69421 32.5852 5.06758 32.1185 5.06758C31.6518 5.06758 31.2784 4.69421 31.2784 4.22749C31.2784 3.76077 31.6518 3.38739 32.1185 3.38739C32.5852 3.38739 32.9586 3.76077 32.9586 4.22749ZM44.7199 4.22749C44.7199 4.69421 44.3465 5.06758 43.8798 5.06758C43.4131 5.06758 43.0397 4.69421 43.0397 4.22749C43.0397 3.76077 43.4131 3.38739 43.8798 3.38739C44.3465 3.38739 44.7199 3.76077 44.7199 4.22749ZM80.1906 10.1081C80.1906 10.5749 79.8172 10.9482 79.3505 10.9482C78.8838 10.9482 78.5104 10.5749 78.5104 10.1081C78.5104 9.64143 78.8838 9.26805 79.3505 9.26805C79.8172 9.26805 80.1906 9.64143 80.1906 10.1081ZM68.3359 21.8695C68.3359 22.3362 67.9625 22.7096 67.4958 22.7096C67.0291 22.7096 66.6557 22.3362 66.6557 21.8695C66.6557 21.4028 67.0291 21.0294 67.4958 21.0294C67.9625 21.1227 68.3359 21.4961 68.3359 21.8695ZM75.5234 7.12115C75.5234 8.24127 74.5899 9.17471 73.4698 9.17471C72.3497 9.17471 71.4162 8.24127 71.4162 7.12115C71.4162 6.00102 72.3497 5.06758 73.4698 5.06758C74.5899 5.06758 75.5234 6.00102 75.5234 7.12115ZM69.6427 10.1081C69.6427 11.2283 68.7093 12.1617 67.5891 12.1617C66.469 12.1617 65.5356 11.2283 65.5356 10.1081C65.5356 8.98802 66.469 8.05459 67.5891 8.05459C68.7093 8.05459 69.6427 8.98802 69.6427 10.1081ZM74.3099 18.9758C74.3099 19.4425 73.9365 19.8159 73.4698 19.8159C73.0031 19.8159 72.6297 19.4425 72.6297 18.9758C72.6297 18.5091 73.0031 18.1357 73.4698 18.1357C73.9365 18.1357 74.3099 18.5091 74.3099 18.9758ZM74.87 13.0952C74.87 13.8419 74.2166 14.4953 73.4698 14.4953C72.7231 14.4953 72.0696 13.8419 72.0696 13.0952C72.0696 12.3484 72.7231 11.695 73.4698 11.695C74.2166 11.695 74.87 12.2551 74.87 13.0952ZM56.5746 4.22749C56.5746 4.69421 56.2012 5.06758 55.7345 5.06758C55.2678 5.06758 54.8944 4.69421 54.8944 4.22749C54.8944 3.76077 55.2678 3.38739 55.7345 3.38739C56.2012 3.38739 56.5746 3.76077 56.5746 4.22749ZM74.3099 1.24048C74.3099 1.7072 73.9365 2.08058 73.4698 2.08058C73.0031 2.08058 72.6297 1.7072 72.6297 1.24048C72.6297 0.773766 73.0031 0.400391 73.4698 0.400391C73.9365 0.400391 74.3099 0.773766 74.3099 1.24048ZM80.1906 4.22749C80.1906 4.69421 79.8172 5.06758 79.3505 5.06758C78.8838 5.06758 78.5104 4.69421 78.5104 4.22749C78.5104 3.76077 78.8838 3.38739 79.3505 3.38739C79.8172 3.38739 80.1906 3.76077 80.1906 4.22749ZM6.07556 39.3248C6.16891 39.0447 6.16891 38.8581 6.16891 38.6714C6.07556 38.578 5.98222 38.4847 5.88888 38.3913C5.5155 38.298 5.23547 38.3913 5.04878 38.9514L3.64862 42.3118L1.78175 38.9514C1.6884 38.7647 1.50171 38.578 1.40837 38.4847C1.22168 38.3913 1.035 38.3913 0.941652 38.4847C0.754964 38.578 0.661621 38.7647 0.661621 38.9514C0.661621 39.1381 0.66162 39.3248 0.848308 39.5115L3.1819 43.5252C3.08856 43.8053 2.99522 43.992 2.90187 44.0853C2.80853 44.1786 2.62184 44.272 2.5285 44.272C2.43515 44.272 2.43515 44.272 2.34181 44.272C2.24847 44.272 2.24847 44.272 2.15512 44.1786C2.06178 44.1786 1.96843 44.0853 1.96843 44.0853C1.59506 43.992 1.40837 44.0853 1.22168 44.3653C1.12834 44.7387 1.22168 45.0187 1.59506 45.2054C1.87509 45.2988 2.15512 45.3921 2.62184 45.3921C3.08856 45.3921 3.46194 45.2054 3.74197 44.9254C4.022 44.552 4.30203 44.0853 4.67541 43.3386L6.07556 39.3248ZM7.94244 45.2988C8.12913 45.2988 8.31581 45.2054 8.40916 45.1121C8.5025 45.0187 8.59585 44.8321 8.59585 44.6454V42.3118H11.6762V44.6454C11.6762 44.8321 11.7695 45.0187 11.8629 45.1121C11.9562 45.2054 12.1429 45.2988 12.3296 45.2988C12.5163 45.2988 12.703 45.2054 12.7963 45.1121C12.8897 45.0187 12.983 44.8321 12.983 44.6454V38.9514C12.983 38.7647 12.8897 38.578 12.7963 38.4847C12.703 38.3913 12.5163 38.298 12.3296 38.298C12.1429 38.298 11.9562 38.3913 11.8629 38.4847C11.7695 38.578 11.6762 38.7647 11.6762 38.9514V41.0983H8.59585V38.9514C8.59585 38.7647 8.5025 38.578 8.40916 38.4847C8.31581 38.3913 8.12913 38.298 7.94244 38.298C7.75575 38.298 7.56906 38.3913 7.47572 38.4847C7.38238 38.578 7.28903 38.7647 7.28903 38.9514V44.6454C7.28903 44.8321 7.38238 45.0187 7.47572 45.1121C7.56906 45.2988 7.75575 45.2988 7.94244 45.2988ZM15.4099 45.2988C15.5966 45.2988 15.7833 45.2054 15.97 44.9254L19.1437 40.5382V44.552C19.1437 44.7387 19.237 44.9254 19.3304 45.0187C19.4237 45.1121 19.6104 45.2054 19.7971 45.2054C19.9838 45.2054 20.1705 45.1121 20.2638 45.0187C20.3572 44.9254 20.4505 44.7387 20.4505 44.552V38.8581C20.4505 38.3913 20.2638 38.2046 19.7971 38.2046C19.5171 38.2046 19.3304 38.298 19.1437 38.578L15.97 42.9652V38.8581C15.97 38.6714 15.8767 38.4847 15.7833 38.3913C15.69 38.298 15.5033 38.2046 15.3166 38.2046C15.1299 38.2046 14.9432 38.298 14.8499 38.3913C14.7565 38.4847 14.6632 38.6714 14.6632 38.8581V44.552C14.6632 44.7387 14.7565 44.9254 14.8499 45.0187C15.0366 45.2988 15.2233 45.2988 15.4099 45.2988ZM26.2378 41.565C26.5179 41.4717 26.7045 41.285 26.7979 41.005C26.9846 40.7249 27.0779 40.4449 27.0779 40.1649C27.0779 38.9514 26.2378 38.298 24.5576 38.298C23.9976 38.298 23.4375 38.298 22.9708 38.3913C22.5974 38.4847 22.4107 38.6714 22.4107 39.1381V44.6454C22.4107 45.0187 22.5974 45.2988 22.9708 45.2988C23.4375 45.3921 23.9976 45.3921 24.651 45.3921C26.5179 45.3921 27.4513 44.6454 27.4513 43.2452C27.4513 42.8718 27.358 42.4985 27.0779 42.2184C26.7979 41.9384 26.5179 41.7517 26.2378 41.565ZM24.4643 41.285H23.5309V39.4181C23.8109 39.4181 24.0909 39.3248 24.371 39.3248C25.3044 39.3248 25.7711 39.6048 25.7711 40.2582C25.7711 40.9116 25.3044 41.285 24.4643 41.285ZM25.6778 44.0853C25.3977 44.272 25.0244 44.3653 24.5576 44.3653C24.0909 44.3653 23.7175 44.3653 23.4375 44.272V42.2184H24.5576C25.5844 42.2184 26.0511 42.5918 26.0511 43.2452C26.0511 43.6186 25.9578 43.8986 25.6778 44.0853ZM33.4253 45.2054C33.5186 45.1121 33.612 44.9254 33.612 44.8321C33.612 44.6454 33.5186 44.552 33.4253 44.3653C33.332 44.272 33.1453 44.1786 32.9586 44.1786H30.0649V42.3118H32.2118C32.3985 42.3118 32.5852 42.2184 32.6786 42.1251C32.7719 42.0317 32.8652 41.8451 32.8652 41.7517C32.8652 41.565 32.7719 41.4717 32.6786 41.285C32.5852 41.0983 32.3985 41.0983 32.2118 41.0983H30.0649V39.4181H32.7719C32.9586 39.4181 33.1453 39.3248 33.2386 39.2314C33.332 39.1381 33.4253 38.9514 33.4253 38.8581C33.4253 38.6714 33.332 38.578 33.2386 38.3913C33.1453 38.298 32.9586 38.2046 32.7719 38.2046H29.4115C29.2248 38.2046 29.0381 38.298 28.9448 38.3913C28.8515 38.4847 28.7581 38.6714 28.7581 38.8581V44.552C28.7581 44.7387 28.8515 44.9254 28.9448 45.0187C29.0381 45.1121 29.2248 45.2054 29.4115 45.2054H32.8652C33.2386 45.2988 33.332 45.2988 33.4253 45.2054ZM39.7727 40.5382C39.7727 39.7915 39.4927 39.2314 39.0259 38.8581C38.5592 38.4847 37.9058 38.298 37.0657 38.298C36.5057 38.298 35.9456 38.298 35.4789 38.3913C35.1055 38.4847 34.9188 38.7647 34.9188 39.1381V44.6454C34.9188 44.8321 35.0122 45.0187 35.1055 45.1121C35.1988 45.2054 35.3855 45.2988 35.5722 45.2988C35.7589 45.2988 35.9456 45.2054 36.0389 45.1121C36.1323 45.0187 36.2256 44.8321 36.2256 44.6454V42.8718C36.4123 42.8718 36.6923 42.8718 37.0657 42.8718C37.9058 42.8718 38.5592 42.6852 39.0259 42.3118C39.4927 41.9384 39.7727 41.3783 39.7727 40.5382ZM36.2256 39.5115C36.5056 39.5115 36.7857 39.4181 37.0657 39.4181C37.9992 39.4181 38.4659 39.7915 38.4659 40.5382C38.4659 41.3783 37.9992 41.7517 37.0657 41.7517C36.7857 41.7517 36.5056 41.7517 36.319 41.7517V39.5115H36.2256ZM45.3733 43.8986C44.9066 44.1786 44.4399 44.3653 43.9732 44.3653C43.4131 44.3653 42.9464 44.1786 42.573 43.7119C42.1996 43.2452 42.0129 42.6852 42.0129 41.9384C42.0129 41.1916 42.1996 40.6316 42.573 40.1649C43.1331 39.4181 44.0665 39.3248 45.28 39.7915C45.6534 39.9782 45.9334 39.8848 46.1201 39.6048C46.3068 39.3248 46.2134 39.0447 45.84 38.8581C45.3733 38.578 44.7199 38.3913 43.9732 38.3913C42.9464 38.3913 42.1996 38.7647 41.5462 39.3248C40.9862 39.9782 40.7061 40.8183 40.7061 41.9384C40.7061 43.0585 40.9862 43.8986 41.5462 44.552C42.1063 45.2054 42.853 45.4855 43.9732 45.4855C44.8133 45.4855 45.4667 45.2988 46.0267 44.9254C46.2134 44.8321 46.3068 44.6454 46.3068 44.4587C46.3068 44.272 46.3068 44.1786 46.2134 43.992C46.0267 43.7119 45.7467 43.6186 45.3733 43.8986ZM52.7475 38.3913C52.5608 38.3913 52.2808 38.4847 52.0941 38.7647L48.9204 43.1519V39.0447C48.9204 38.8581 48.827 38.6714 48.7337 38.578C48.6404 38.4847 48.4537 38.3913 48.267 38.3913C48.0803 38.3913 47.8936 38.4847 47.8003 38.578C47.7069 38.6714 47.7069 38.8581 47.7069 39.0447V44.7387C47.7069 44.9254 47.8003 45.1121 47.8936 45.2054C47.9869 45.2988 48.1736 45.3921 48.3603 45.3921C48.547 45.3921 48.7337 45.2988 48.9204 45.0187L52.0941 40.6316V44.6454C52.0941 44.8321 52.1874 45.0187 52.2808 45.1121C52.3741 45.2054 52.5608 45.2988 52.7475 45.2988C52.9342 45.2988 53.1209 45.2054 53.2142 45.1121C53.3075 45.0187 53.4009 44.8321 53.4009 44.6454V38.9514C53.3075 38.578 53.1209 38.3913 52.7475 38.3913ZM60.4017 38.9514C60.4017 38.7647 60.3083 38.6714 60.215 38.4847C60.1216 38.3913 59.935 38.298 59.7483 38.298H54.9877C54.801 38.298 54.6144 38.3913 54.521 38.4847C54.4277 38.578 54.3343 38.7647 54.3343 38.9514C54.3343 39.1381 54.4277 39.2314 54.521 39.4181C54.6144 39.5115 54.801 39.6048 54.9877 39.6048H56.7613V44.8321C56.7613 45.0187 56.8546 45.2054 56.948 45.2988C57.0413 45.3921 57.228 45.4855 57.4147 45.4855C57.6014 45.4855 57.788 45.3921 57.8814 45.2988C57.9747 45.2054 58.0681 45.0187 58.0681 44.8321V39.6048H59.8416C60.0283 39.6048 60.215 39.5115 60.3083 39.4181C60.4017 39.2314 60.4017 39.1381 60.4017 38.9514ZM65.7223 44.1786H62.8286V42.3118H64.9755C65.1622 42.3118 65.3489 42.2184 65.4422 42.1251C65.5356 42.0317 65.6289 41.8451 65.6289 41.7517C65.6289 41.565 65.5356 41.4717 65.4422 41.285C65.3489 41.1916 65.1622 41.0983 64.9755 41.0983H62.8286V39.4181H65.5356C65.7223 39.4181 65.909 39.3248 66.0023 39.2314C66.0956 39.1381 66.189 38.9514 66.189 38.8581C66.189 38.6714 66.0956 38.578 66.0023 38.3913C65.909 38.298 65.7223 38.2046 65.5356 38.2046H62.1752C61.9885 38.2046 61.8018 38.298 61.7085 38.3913C61.6151 38.4847 61.5218 38.6714 61.5218 38.8581V44.552C61.5218 44.7387 61.6151 44.9254 61.7085 45.0187C61.8018 45.1121 61.9885 45.2054 62.1752 45.2054H65.6289C65.8156 45.2054 66.0023 45.1121 66.0956 45.0187C66.189 44.9254 66.2823 44.7387 66.2823 44.6454C66.2823 44.4587 66.189 44.3653 66.0956 44.1786C66.0023 44.272 65.909 44.1786 65.7223 44.1786ZM72.7231 38.9514C72.7231 38.7647 72.6297 38.6714 72.5364 38.4847C72.443 38.3913 72.2563 38.298 72.0696 38.298H67.3091C67.1224 38.298 66.9357 38.3913 66.8424 38.4847C66.7491 38.578 66.6557 38.7647 66.6557 38.9514C66.6557 39.1381 66.7491 39.2314 66.8424 39.4181C66.9357 39.5115 67.1224 39.6048 67.3091 39.6048H69.0826V44.8321C69.0826 45.0187 69.176 45.2054 69.2693 45.2988C69.3627 45.3921 69.5494 45.4855 69.7361 45.4855C69.9227 45.4855 70.1094 45.3921 70.2028 45.2988C70.2961 45.2054 70.3895 45.0187 70.3895 44.8321V39.6048H72.163C72.3497 39.6048 72.5364 39.5115 72.6297 39.4181C72.7231 39.2314 72.7231 39.1381 72.7231 38.9514ZM82.3375 44.6454V38.9514C82.3375 38.4847 82.1508 38.298 81.6841 38.298C81.404 38.298 81.2173 38.3913 81.0307 38.6714L77.857 43.0585V38.9514C77.857 38.7647 77.7636 38.578 77.6703 38.4847C77.5769 38.3913 77.3903 38.298 77.2036 38.298C77.0169 38.298 76.8302 38.3913 76.7368 38.4847C76.6435 38.578 76.5502 38.7647 76.5502 38.9514V44.6454C76.5502 44.8321 76.6435 45.0187 76.7368 45.1121C76.8302 45.2054 77.0169 45.2988 77.2036 45.2988C77.3903 45.2988 77.5769 45.2054 77.7636 44.9254L80.9373 40.5382V44.552C80.9373 44.7387 81.0307 44.9254 81.124 45.0187C81.2174 45.1121 81.404 45.2054 81.5907 45.2054C81.7774 45.2054 81.9641 45.1121 82.0574 45.0187C82.2441 45.0187 82.3375 44.8321 82.3375 44.6454ZM88.7782 38.3913H84.0177C83.831 38.3913 83.6443 38.4847 83.5509 38.578C83.4576 38.6714 83.3643 38.8581 83.3643 39.0447C83.3643 39.2314 83.4576 39.3248 83.5509 39.5115C83.6443 39.6048 83.831 39.6981 84.0177 39.6981H85.7912V44.9254C85.7912 45.1121 85.8845 45.2988 85.9779 45.3921C86.0712 45.4855 86.2579 45.5788 86.4446 45.5788C86.6313 45.5788 86.818 45.4855 86.9113 45.3921C87.0047 45.2988 87.098 45.1121 87.098 44.9254V39.6981H88.8715C89.0582 39.6981 89.2449 39.6048 89.3383 39.5115C89.4316 39.4181 89.5249 39.2314 89.5249 39.0447C89.5249 38.8581 89.4316 38.7647 89.3383 38.578C89.1516 38.3913 88.9649 38.3913 88.7782 38.3913ZM96.3391 38.3913C96.059 38.3913 95.8723 38.4847 95.6856 38.7647L93.7254 41.9384L91.6719 38.7647C91.4852 38.4847 91.2985 38.3913 91.0184 38.3913C90.8318 38.3913 90.7384 38.4847 90.5517 38.578C90.4584 38.6714 90.365 38.8581 90.365 39.0447V44.7387C90.365 45.2054 90.5517 45.3921 90.9251 45.3921C91.2985 45.3921 91.4852 45.2054 91.4852 44.7387V40.8183L92.8853 43.0585C93.072 43.3386 93.2587 43.4319 93.4454 43.4319C93.7254 43.4319 93.9121 43.3386 94.0054 43.0585L95.4056 40.8183V44.7387C95.4056 44.9254 95.499 45.1121 95.5923 45.2054C95.6856 45.2988 95.8723 45.3921 96.059 45.3921C96.2457 45.3921 96.4324 45.2988 96.5257 45.2054C96.6191 45.1121 96.7124 44.9254 96.7124 44.7387V39.0447C96.7124 38.8581 96.6191 38.6714 96.5257 38.578C96.6191 38.3913 96.5257 38.3913 96.3391 38.3913ZM104.18 39.2314C103.62 38.578 102.78 38.2046 101.753 38.2046C100.726 38.2046 99.8861 38.578 99.3261 39.2314C98.766 39.8848 98.486 40.8183 98.486 41.8451C98.486 42.8718 98.766 43.8053 99.3261 44.4587C99.8861 45.1121 100.726 45.4855 101.753 45.4855C102.78 45.4855 103.62 45.1121 104.18 44.4587C104.74 43.8053 105.02 42.9652 105.02 41.8451C105.113 40.8183 104.833 39.9782 104.18 39.2314ZM103.246 43.6186C102.873 44.0853 102.406 44.272 101.753 44.272C101.1 44.272 100.633 44.0853 100.259 43.6186C99.8861 43.1519 99.6994 42.5918 99.6994 41.8451C99.6994 41.0983 99.8861 40.5382 100.259 40.0715C100.633 39.6048 101.1 39.4181 101.753 39.4181C102.406 39.4181 102.873 39.6048 103.246 40.0715C103.62 40.5382 103.807 41.0983 103.807 41.8451C103.713 42.5918 103.527 43.1519 103.246 43.6186ZM33.5186 15.9888C33.5186 16.7356 32.8652 17.389 32.1185 17.389C31.3717 17.389 30.7183 16.7356 30.7183 15.9888C30.7183 15.2421 31.3717 14.5887 32.1185 14.5887C32.8652 14.5887 33.5186 15.2421 33.5186 15.9888Z" fill="#152437"/>
<path d="M34.1721 10.1073C34.1721 11.2274 33.2386 12.1608 32.1185 12.1608C30.9984 12.1608 30.0649 11.2274 30.0649 10.1073C30.0649 8.98715 30.9984 8.05371 32.1185 8.05371C33.2386 8.05371 34.1721 8.98715 34.1721 10.1073Z" fill="#152437"/>
</svg>
