<svg width="15" height="14" viewBox="0 0 15 14" fill="none" xmlns="http://www.w3.org/2000/svg">
<path d="M14.8411 4.54558L10.5553 0.385615C10.4493 0.282682 10.3237 0.231201 10.1786 0.231201C10.0335 0.231201 9.90795 0.282682 9.80199 0.385615C9.69595 0.488606 9.64285 0.610492 9.64285 0.751304V2.83129H7.76787C3.78891 2.83129 1.34764 3.92277 0.443497 6.10569C0.147823 6.83143 0 7.73342 0 8.81133C0 9.71044 0.354369 10.9319 1.06305 12.4757C1.07976 12.5137 1.10896 12.5785 1.15089 12.6706C1.19278 12.7626 1.2304 12.8438 1.26388 12.9143C1.29748 12.9846 1.33377 13.0442 1.3728 13.0929C1.4397 13.185 1.51786 13.2312 1.60717 13.2312C1.69087 13.2312 1.75646 13.2041 1.80392 13.15C1.85127 13.0959 1.87499 13.0281 1.87499 12.947C1.87499 12.8981 1.86801 12.8265 1.85403 12.7316C1.84007 12.6368 1.83306 12.5733 1.83306 12.5407C1.80512 12.1725 1.79117 11.8391 1.79117 11.5414C1.79117 10.9944 1.84007 10.5042 1.93764 10.0709C2.03536 9.63747 2.17066 9.26245 2.3437 8.94553C2.51671 8.62851 2.73985 8.35517 3.01336 8.12494C3.28675 7.89472 3.58108 7.70655 3.89636 7.56028C4.21171 7.41397 4.58279 7.29886 5.00969 7.21493C5.43657 7.13098 5.86623 7.07273 6.29876 7.0402C6.73129 7.00767 7.22096 6.99151 7.76787 6.99151H9.64285V9.07155C9.64285 9.21236 9.69583 9.33428 9.80179 9.43715C9.90792 9.53997 10.0334 9.59151 10.1784 9.59151C10.3235 9.59151 10.4491 9.53997 10.5553 9.43715L14.841 5.27704C14.947 5.17411 15 5.05228 15 4.91144C15 4.77063 14.947 4.64871 14.8411 4.54558Z" fill="#26A7C5"/>
</svg>
