<svg width="142" height="142" viewBox="0 0 142 142" fill="none" xmlns="http://www.w3.org/2000/svg">
<path d="M71.0408 141.288C109.919 141.288 141.627 109.579 141.627 70.7017C141.627 31.8235 109.919 0.115234 71.0408 0.115234C32.1627 0.115234 0.454346 31.8246 0.454346 70.7017C0.454346 109.579 32.1638 141.288 71.0408 141.288Z" fill="#48B5CD"/>
<path d="M22.545 90.4131C25.3161 90.4131 28.0862 90.4131 30.8574 90.4131L31.5311 97.4186L33.565 98.9124L45.6673 102.748C45.6673 102.748 47.2541 103.621 47.7203 106.062C47.9253 107.133 48.3584 128.56 48.8103 137.712C31.0635 131.827 16.441 119.092 8.07764 102.639L19.9202 98.8592L21.8724 97.4189L22.545 90.4131Z" fill="#F0B97D"/>
<path d="M32.835 101.053C30.8291 103.396 24.1304 104.407 20.4409 100.404L26.7015 119.04L32.835 101.053Z" fill="white"/>
<path d="M16.3237 79.774C13.7168 79.3117 15.939 87.0968 17.8431 85.9366L18.8657 88.937C19.7865 91.6394 22.108 94.1013 23.8758 96.0496C24.566 96.81 28.7904 96.7973 29.4718 96.0788C31.4292 94.0206 33.7535 91.7093 34.6269 88.9216L35.5618 85.9364C37.4694 87.0952 39.6866 79.3128 37.0811 79.7737C37.2619 73.7143 32.9766 67.8343 26.7031 67.8076C20.4296 67.8343 16.1443 73.7143 16.3251 79.7737H16.3237V79.774Z" fill="#FED198"/>
<path d="M19.9212 98.8594L8.07861 102.639C16.4673 119.145 31.1575 131.907 48.9805 137.767C48.4697 131.784 47.9502 107.266 47.721 106.062C47.2548 103.621 45.668 102.748 45.668 102.748L33.5657 98.9125L26.7027 119.039L19.9226 98.8594H19.9212Z" fill="#FBB429"/>
<path d="M34.1834 69.0017C34.9206 68.915 37.5798 71.345 37.8996 74.1596C38.2193 76.9729 37.6068 79.809 37.6068 79.809C35.7346 79.7185 36.3244 82.5802 35.9168 83.0323L35.3896 83.0439L35.1922 81.1233C32.8606 79.6626 36.1117 73.8896 33.78 73.3827C29.7886 76.671 23.8668 77.8871 18.7014 77.0428C17.2509 77.2351 19.3611 79.069 18.7485 81.1778C18.2977 81.9648 18.5663 83.2065 18.5663 83.2065L17.8913 83.2904C17.8913 83.2904 17.4647 79.7308 16.1644 79.7449C15.8485 78.1034 15.7186 77.1253 15.8053 75.6721C16.2511 68.2348 26.2496 64.0001 34.1823 69.0014H34.1834V69.0017Z" fill="#666666"/>
<path d="M104.7 97.9617C106.573 94.8121 109.526 91.1573 106.528 85.5995C102.114 66.3018 122.454 62.3883 125.53 70.3529C130.534 72.2401 130.401 82.6283 127.828 88.0639C127.713 90.3014 125.386 92.2526 129.59 98.0241L129.893 97.9578H129.892C124.44 99.5382 110.463 98.8098 104.7 97.9617Z" fill="#666666"/>
<path d="M114.05 93.894C113.863 97.3491 112.637 98.6546 110.935 99.5638C110.07 100.328 102.475 101.242 101.449 104.017C101.231 104.606 100.574 122.966 99.9512 135.113C114.492 128.576 126.419 117.259 133.733 103.163C131.55 100.841 125.185 100.286 124.435 99.6593C122.771 98.7283 121.576 97.3592 121.391 93.894C121.391 93.894 118.905 95.822 117.359 95.5254C115.813 95.2287 114.05 93.894 114.05 93.894Z" fill="#F0B97D"/>
<path d="M110.045 88.2252C111.578 91.5096 112.146 92.792 114.05 94.2695C114.05 94.2695 115.813 95.6295 117.359 95.9327C118.905 96.236 121.391 94.2695 121.391 94.2695C123.296 92.7933 123.863 91.511 125.396 88.2252C125.771 88.4252 126.165 88.6977 126.469 88.3474C126.775 87.997 128.228 83.4531 127.966 82.8405C127.705 82.2279 127.449 82.619 127.059 82.8967C127.079 82.7643 126.751 84.5382 126.756 84.2682C126.793 82.1236 125.285 81.7835 124.813 76.1074C117.862 83.0048 111.368 79.8401 109.105 80.3011C108.449 80.4348 108.257 82.1132 108.378 82.8964C105.925 81.1453 108.907 88.2758 108.969 88.3471C109.275 88.6974 109.667 88.4261 110.042 88.2249H110.045V88.2252Z" fill="#FED198"/>
<path d="M110.934 99.562C108.062 100.764 103.595 100.818 101.359 103.743C100.935 104.297 98.9238 124.045 97.4248 136.187C113.11 129.862 125.999 118.066 133.733 103.164C131.372 100.505 126.711 100.746 124.487 99.5532L117.964 112.886L110.934 99.562Z" fill="#FBB429"/>
<path d="M33.3623 38.6032L73.4375 56.7956L111.161 39.6718L71.0868 21.4795L33.3637 38.6046L33.3623 38.6032Z" fill="#666666"/>
<path d="M64.2783 80.4237C69.6004 80.4237 74.9224 80.4237 80.2432 80.4237L81.5371 93.8797L85.4443 96.7477L108.692 104.116C108.692 104.116 111.741 105.793 112.636 110.484C113.109 112.961 114.219 119.326 115.266 125.712C103.165 135.453 87.7848 141.287 71.0405 141.287C55.0107 141.287 40.2302 135.939 28.3799 126.935C29.7781 120.131 31.4477 112.78 31.8858 110.483C32.6385 106.54 35.8298 104.115 35.8298 104.115L59.2359 96.6445L62.984 93.8783L64.2766 80.4209L64.2783 80.4237Z" fill="#F0B97D"/>
<path d="M84.0422 100.86C80.1884 105.361 67.3221 107.304 60.2349 99.6143L72.2621 135.411L84.0435 100.86H84.0422Z" fill="#20D0C2"/>
<path d="M52.325 59.9864C47.3187 59.0987 51.5864 74.0525 55.244 71.8227L57.2063 77.5865C58.9739 82.7789 63.4339 87.5075 66.8278 91.249C68.1523 92.7083 76.2672 92.6854 77.579 91.3051C81.3373 87.352 85.8033 82.9126 87.4793 77.5574L89.2749 71.8227C92.9377 74.0501 97.1974 59.1001 92.1938 59.9864C92.5414 48.3464 84.3093 37.0529 72.2593 37.002C60.2095 37.0526 51.9785 48.3464 52.325 59.9864Z" fill="#FED198"/>
<path d="M59.2364 96.6475L35.8303 104.118C35.8303 104.118 32.639 106.543 31.8863 110.484C31.4482 112.781 29.7786 120.133 28.3804 126.937C40.2304 135.941 55.0109 141.288 71.0407 141.288C87.785 141.288 103.165 135.454 115.266 125.712C114.22 119.325 113.109 112.961 112.637 110.484C111.74 105.795 108.693 104.118 108.693 104.118L85.4445 96.7493L72.2609 135.412L59.2364 96.6475Z" fill="#25869C"/>
<path d="M86.6336 39.2941C88.0473 39.1298 93.1579 43.796 93.7704 49.2021C94.383 54.6068 93.2063 60.0551 93.2063 60.0551C89.6112 59.8792 90.7434 65.3773 89.9602 66.2458L88.9491 66.2686L88.571 62.5791C84.0934 59.7736 90.3374 48.6836 85.8584 47.7119C78.1919 54.0273 66.818 56.3642 56.8946 54.7417C54.1094 55.1124 58.1619 58.6337 56.9862 62.6834C56.1202 64.1964 56.6373 66.5804 56.6373 66.5804L55.3422 66.7422C55.3422 66.7422 54.5233 59.9045 52.0248 59.9326C51.4186 56.7806 51.169 54.901 51.3357 52.1106C52.1916 37.823 71.3988 29.6875 86.6353 39.2952L86.6336 39.2941Z" fill="#666666"/>
<path d="M51.3546 40.0785C60.4425 33.1569 85.5438 33.0207 93.6509 40.016L94.0774 51.3071C79.9285 47.1071 65.3277 47.4916 50.8604 51.7375L51.3546 40.0771V40.0785Z" fill="#807D7D"/>
<path d="M43.5861 34.378L43.6497 54.3965V55.0168H42.4768V54.3965V34.7575C42.5175 33.6102 43.5071 33.4523 43.5861 34.378Z" fill="white"/>
<path d="M40.9055 58.0083C40.9055 63.3407 39.786 67.9292 39.7236 68.2347C39.6611 68.5401 40.7385 69.5465 40.9462 68.5404C41.1537 67.5343 40.9259 68.5622 41.8786 68.6271C42.8173 68.692 43.0121 68.2272 43.0184 68.2118C43.0247 68.2272 43.221 68.692 44.1583 68.6271C45.1121 68.5622 44.8842 67.5343 45.0917 68.5404C45.2992 69.5451 46.3766 68.5404 46.3144 68.2347C46.2533 67.9289 45.1338 63.3393 45.1338 58.0083C45.0829 55.9669 44.2832 55.0041 43.0198 54.7085C41.7547 55.0027 40.955 55.9656 40.9055 58.0083Z" fill="#FBB429"/>
<path d="M43.0449 54.7085C45.141 54.7085 45.2021 56.0393 45.0954 57.2722C44.633 56.8709 43.8881 56.6112 43.0449 56.6112C42.2017 56.6112 41.4568 56.8709 40.9945 57.2722C40.9207 55.8406 40.9502 54.7085 43.0449 54.7085Z" fill="#807D7D"/>
</svg>
