<svg width="27" height="28" viewBox="0 0 27 28" fill="none" xmlns="http://www.w3.org/2000/svg">
<path d="M13.5128 27.2532C20.8039 27.2532 26.7144 21.3427 26.7144 14.0517C26.7144 6.76064 20.8039 0.850098 13.5128 0.850098C6.22182 0.850098 0.311279 6.76064 0.311279 14.0517C0.311279 21.3427 6.22182 27.2532 13.5128 27.2532Z" fill="#4D76A1"/>
<path fill-rule="evenodd" clip-rule="evenodd" d="M13.0144 19.8418H14.0505C14.0505 19.8418 14.3635 19.8074 14.5233 19.6352C14.6704 19.477 14.6657 19.18 14.6657 19.18C14.6657 19.18 14.6455 17.7897 15.2907 17.585C15.9268 17.3833 16.7437 18.9287 17.6094 19.5229C18.2641 19.9726 18.7616 19.874 18.7616 19.874L21.0766 19.8418C21.0766 19.8418 22.2876 19.7672 21.7134 18.815C21.6663 18.7371 21.379 18.1107 19.9922 16.8234C18.5406 15.4762 18.735 15.6941 20.4835 13.3636C21.5484 11.9443 21.9741 11.0778 21.8411 10.7067C21.7143 10.3533 20.9311 10.4467 20.9311 10.4467L18.3246 10.4629C18.3246 10.4629 18.1314 10.4366 17.9881 10.5222C17.8481 10.6062 17.7579 10.802 17.7579 10.802C17.7579 10.802 17.3454 11.9003 16.7952 12.8343C15.6345 14.8052 15.1705 14.9093 14.9808 14.7869C14.5396 14.5017 14.6497 13.6411 14.6497 13.0297C14.6497 11.1197 14.9394 10.3234 14.0856 10.1172C13.8023 10.0487 13.5938 10.0036 12.8692 9.99627C11.9392 9.98662 11.152 9.99909 10.7063 10.2175C10.4097 10.3627 10.181 10.6863 10.3203 10.7048C10.4926 10.7279 10.8828 10.81 11.0896 11.0917C11.3567 11.4551 11.3473 12.2712 11.3473 12.2712C11.3473 12.2712 11.5007 14.5195 10.9889 14.7989C10.6375 14.9904 10.1556 14.5993 9.12084 12.8113C8.59064 11.8954 8.19035 10.883 8.19035 10.883C8.19035 10.883 8.11316 10.6938 7.97549 10.5926C7.8084 10.47 7.57496 10.4309 7.57496 10.4309L5.09811 10.4472C5.09811 10.4472 4.72628 10.4575 4.58979 10.6192C4.46836 10.763 4.58014 11.0604 4.58014 11.0604C4.58014 11.0604 6.51926 15.5971 8.7149 17.8834C10.7281 19.9794 13.0144 19.8418 13.0144 19.8418Z" fill="white"/>
</svg>
